<svg data-v-423bf9ae="" xmlns="http://www.w3.org/2000/svg" viewBox="0 0 1975.1137085090693 193" class="fontAboveSlogan"><!----><!----><!----><g data-v-423bf9ae="" id="6ba9d2f5-99a6-4cd1-9a6c-338d5deada1d" fill="#D2CECE" transform="matrix(8.727272727272727,0,0,8.727272727272727,412.40273360772574,-30.586363120512516)"><path d="M2.67 14.35L6.68 14.35L6.68 13.68L5.33 13.68L5.33 5.31L7.78 5.31L7.78 6.96L8.86 6.96L8.86 4.58L0.49 4.58L0.49 6.96L1.57 6.96L1.57 5.31L4.02 5.31L4.02 13.68L2.67 13.68ZM11.68 14.52C12.98 14.52 13.54 13.93 13.82 13.30L13.89 13.30L13.89 13.34C13.89 14.06 14.32 14.52 15.09 14.52C15.54 14.52 15.90 14.39 16.11 14.24L16.11 13.71L15.06 13.71L15.06 9.20C15.06 7.78 14.14 6.96 12.60 6.96C10.84 6.96 9.84 7.77 9.84 8.60C9.84 9.16 10.18 9.45 10.65 9.45C11.16 9.45 11.48 9.16 11.48 8.64C11.48 8.22 11.23 8.01 11.00 7.88L11.00 7.85C11.27 7.71 11.72 7.63 12.15 7.63C13.26 7.63 13.82 8.26 13.82 9.38L13.82 10.42L12.80 10.42C10.36 10.42 9.49 11.16 9.49 12.56C9.49 13.76 10.32 14.52 11.68 14.52ZM12.21 13.71C11.34 13.71 10.82 13.34 10.82 12.64L10.82 12.36C10.82 11.48 11.31 11.02 12.92 11.02L13.82 11.02L13.82 12.35C13.82 13.27 13.09 13.71 12.21 13.71ZM17.09 14.35L20.44 14.35L20.44 13.68L19.39 13.68L19.39 9.18C19.39 8.25 20.27 7.80 21.08 7.80C22.25 7.80 22.78 8.46 22.78 9.77L22.78 13.68L21.73 13.68L21.73 14.35L25.07 14.35L25.07 13.68L24.02 13.68L24.02 9.67C24.02 7.87 23.32 6.96 21.53 6.96C20.37 6.96 19.67 7.63 19.45 8.20L19.39 8.20L19.39 3.57L17.09 4.00L17.09 4.51L18.14 4.70L18.14 13.68L17.09 13.68ZM26.47 7.91L26.94 7.91L27.26 5.25L27.26 3.99L26.15 3.99L26.15 5.25ZM32.02 14.52C33.66 14.52 34.64 13.58 34.64 12.39C34.64 11.16 33.89 10.49 32.42 10.18L31.61 10.01C30.88 9.86 30.42 9.41 30.42 8.78C30.42 8.04 30.98 7.69 31.93 7.69C33.01 7.69 33.50 8.05 33.50 8.76L33.50 9.31L34.41 9.31L34.41 7.13L33.50 7.13L33.50 7.70L33.45 7.70C33.26 7.25 32.65 6.96 31.77 6.96C30.24 6.96 29.27 7.74 29.27 9.02C29.27 10.23 30.00 10.95 31.42 11.24L32.28 11.42C33.04 11.58 33.46 12.01 33.46 12.63C33.46 13.45 32.84 13.78 31.78 13.78C30.60 13.78 30.16 13.23 30.16 12.45L30.16 12.17L29.25 12.17L29.25 14.35L30.16 14.35L30.16 13.65L30.21 13.65C30.42 14.08 31.14 14.52 32.02 14.52ZM39.41 14.35L44.66 14.35C46.17 14.35 47.29 13.29 47.29 11.63C47.29 10.08 45.99 9.34 45.01 9.28L45.01 9.23C45.96 9.07 46.91 8.27 46.91 6.89C46.91 5.52 45.88 4.58 44.21 4.58L39.41 4.58L39.41 5.25L40.47 5.25L40.47 13.68L39.41 13.68ZM41.79 9.67L44.17 9.67C45.25 9.67 45.91 10.36 45.91 11.34L45.91 11.96C45.91 12.94 45.25 13.62 44.17 13.62L41.79 13.62ZM41.79 5.31L43.95 5.31C44.93 5.31 45.53 5.94 45.53 6.83L45.53 7.42C45.53 8.32 44.93 8.95 43.95 8.95L41.79 8.95ZM52.23 14.52C53.80 14.52 54.77 13.59 55.13 12.60L54.64 12.29C54.25 13.05 53.59 13.57 52.43 13.57C51.11 13.57 50.25 12.60 50.25 11.06L50.25 10.71L55.29 10.71L55.29 10.37C55.29 8.39 54.11 6.96 52.16 6.96C50.27 6.96 48.86 8.50 48.86 10.74C48.86 12.99 50.09 14.52 52.23 14.52ZM50.25 9.84C50.25 8.58 50.90 7.66 52.16 7.66C53.44 7.66 53.97 8.62 53.97 9.88L53.97 10.04L50.25 10.04ZM58.94 14.52C60.24 14.52 60.80 13.93 61.08 13.30L61.15 13.30L61.15 13.34C61.15 14.06 61.59 14.52 62.36 14.52C62.80 14.52 63.17 14.39 63.38 14.24L63.38 13.71L62.33 13.71L62.33 9.20C62.33 7.78 61.40 6.96 59.86 6.96C58.10 6.96 57.11 7.77 57.11 8.60C57.11 9.16 57.44 9.45 57.92 9.45C58.42 9.45 58.74 9.16 58.74 8.64C58.74 8.22 58.49 8.01 58.27 7.88L58.27 7.85C58.53 7.71 58.98 7.63 59.42 7.63C60.52 7.63 61.08 8.26 61.08 9.38L61.08 10.42L60.06 10.42C57.62 10.42 56.76 11.16 56.76 12.56C56.76 13.76 57.58 14.52 58.94 14.52ZM59.47 13.71C58.60 13.71 58.09 13.34 58.09 12.64L58.09 12.36C58.09 11.48 58.58 11.02 60.19 11.02L61.08 11.02L61.08 12.35C61.08 13.27 60.35 13.71 59.47 13.71ZM67.76 14.52C68.92 14.52 69.66 13.83 69.89 13.26L69.94 13.26L69.94 14.52L72.20 14.08L72.20 13.58L71.15 13.38L71.15 6.96L68.85 7.39L68.85 7.90L69.90 8.09L69.90 12.29C69.90 13.23 69.02 13.68 68.21 13.68C67.05 13.68 66.51 13.02 66.51 11.69L66.51 6.96L64.22 7.39L64.22 7.90L65.27 8.09L65.27 11.79C65.27 13.61 65.97 14.52 67.76 14.52ZM75.63 14.43C76.30 14.43 77.04 14.29 77.36 14.11L77.36 13.62L75.47 13.62L75.47 7.85L77.36 7.85L77.36 7.13L75.47 7.13L75.47 5.25L74.80 5.25L74.45 6.50C74.33 6.92 74.21 7.13 73.40 7.13L73.29 7.13L73.29 7.85L74.23 7.85L74.23 13.03C74.23 14.06 74.56 14.43 75.63 14.43ZM79.55 17.32C80.54 17.32 81.21 16.56 81.61 15.57L84.69 7.80L85.43 7.80L85.43 7.13L82.81 7.13L82.81 7.80L83.80 7.80L81.93 12.98L81.87 12.98L79.90 7.80L80.89 7.80L80.89 7.13L77.80 7.13L77.80 7.80L78.54 7.80L81.27 14.66L80.96 15.44C80.60 16.37 80.11 16.76 79.62 16.76C79.46 16.76 79.37 16.74 79.25 16.70L79.25 16.66C79.44 16.60 79.65 16.39 79.65 16.07C79.65 15.62 79.38 15.34 78.93 15.34C78.41 15.34 78.13 15.68 78.13 16.18C78.13 16.86 78.57 17.32 79.55 17.32ZM89.47 14.35L92.92 14.35L92.92 13.68L91.85 13.68L91.85 9.74L96.84 9.74L96.84 13.68L95.77 13.68L95.77 14.35L99.22 14.35L99.22 13.68L98.15 13.68L98.15 5.25L99.22 5.25L99.22 4.58L95.77 4.58L95.77 5.25L96.84 5.25L96.84 9.02L91.85 9.02L91.85 5.25L92.92 5.25L92.92 4.58L89.47 4.58L89.47 5.25L90.54 5.25L90.54 13.68L89.47 13.68ZM102.87 14.52C104.17 14.52 104.73 13.93 105.01 13.30L105.08 13.30L105.08 13.34C105.08 14.06 105.52 14.52 106.29 14.52C106.74 14.52 107.10 14.39 107.31 14.24L107.31 13.71L106.26 13.71L106.26 9.20C106.26 7.78 105.34 6.96 103.80 6.96C102.03 6.96 101.04 7.77 101.04 8.60C101.04 9.16 101.37 9.45 101.85 9.45C102.35 9.45 102.68 9.16 102.68 8.64C102.68 8.22 102.42 8.01 102.20 7.88L102.20 7.85C102.47 7.71 102.91 7.63 103.35 7.63C104.45 7.63 105.01 8.26 105.01 9.38L105.01 10.42L103.99 10.42C101.56 10.42 100.69 11.16 100.69 12.56C100.69 13.76 101.51 14.52 102.87 14.52ZM103.40 13.71C102.54 13.71 102.02 13.34 102.02 12.64L102.02 12.36C102.02 11.48 102.51 11.02 104.12 11.02L105.01 11.02L105.01 12.35C105.01 13.27 104.29 13.71 103.40 13.71ZM110.99 14.35L111.93 14.35L114.53 7.80L115.28 7.80L115.28 7.13L112.66 7.13L112.66 7.80L113.65 7.80L111.76 12.98L111.71 12.98L109.75 7.80L110.74 7.80L110.74 7.13L107.65 7.13L107.65 7.80L108.39 7.80ZM119.17 14.52C120.74 14.52 121.70 13.59 122.07 12.60L121.58 12.29C121.18 13.05 120.53 13.57 119.36 13.57C118.05 13.57 117.18 12.60 117.18 11.06L117.18 10.71L122.22 10.71L122.22 10.37C122.22 8.39 121.04 6.96 119.10 6.96C117.21 6.96 115.79 8.50 115.79 10.74C115.79 12.99 117.03 14.52 119.17 14.52ZM117.18 9.84C117.18 8.58 117.84 7.66 119.10 7.66C120.37 7.66 120.90 8.62 120.90 9.88L120.90 10.04L117.18 10.04ZM123.55 14.35L126.90 14.35L126.90 13.68L125.85 13.68L125.85 9.18C125.85 8.25 126.73 7.80 127.54 7.80C128.70 7.80 129.23 8.46 129.23 9.77L129.23 13.68L128.18 13.68L128.18 14.35L131.53 14.35L131.53 13.68L130.48 13.68L130.48 9.67C130.48 7.87 129.78 6.96 127.99 6.96C126.83 6.96 126.08 7.64 125.86 8.22L125.80 8.22L125.80 6.96L123.55 7.39L123.55 7.90L124.60 8.09L124.60 13.68L123.55 13.68Z"></path></g><!----><!----><g data-v-423bf9ae="" id="e6423059-f146-421b-a4cb-cf8d0c092b82" fill="#0E0E0E" transform="matrix(5.681818469168412,0,0,5.681818469168412,-1.5909079627328993,114.24999717690724)"><path d="M0.28 13.33L0.28 13.33Q0.28 13.13 0.49 13.06L0.49 13.06Q0.94 12.89 1.27 12.31Q1.61 11.73 2.94 8.83L2.94 8.83Q4.31 5.87 5.36 3.63L5.36 3.63Q5.46 3.42 5.54 3.36Q5.61 3.30 5.78 3.30L5.78 3.30Q5.91 3.30 5.95 3.36Q5.99 3.42 6.13 3.82L6.13 3.82Q6.22 4.06 6.28 4.23Q6.34 4.40 6.48 4.77Q6.62 5.15 6.79 5.56L6.79 5.56Q7.24 6.66 8.34 9.22Q9.44 11.77 9.53 11.98L9.53 11.98Q9.77 12.46 10.07 12.71Q10.36 12.95 10.58 12.97Q10.79 12.99 10.94 13.04Q11.09 13.09 11.09 13.26L11.09 13.26Q11.09 13.47 10.71 13.47L10.71 13.47Q10.56 13.47 10.11 13.43Q9.66 13.38 9.45 13.38L9.45 13.38Q9.18 13.38 8.76 13.41Q8.34 13.44 8.15 13.44L8.15 13.44Q7.71 13.44 7.59 13.40Q7.48 13.37 7.48 13.24L7.48 13.24Q7.48 13.15 7.59 13.08Q7.70 13.02 7.83 13.00Q7.95 12.98 8.06 12.87Q8.18 12.77 8.18 12.59L8.18 12.59Q8.18 12.28 7.83 11.33Q7.48 10.37 7.24 9.93L7.24 9.93Q7.11 9.69 6.66 9.69L6.66 9.69Q6.59 9.69 6.05 9.70Q5.50 9.72 4.97 9.72L4.97 9.72L4.23 9.72Q3.60 9.72 3.44 9.79Q3.28 9.86 3.15 10.12L3.15 10.12Q3.07 10.30 2.87 10.70Q2.67 11.10 2.60 11.26Q2.53 11.41 2.43 11.65Q2.32 11.90 2.29 12.05Q2.25 12.19 2.25 12.31L2.25 12.31Q2.25 12.63 2.42 12.80Q2.58 12.96 2.77 12.98Q2.97 13.01 3.13 13.06Q3.29 13.12 3.29 13.26L3.29 13.26Q3.29 13.36 3.25 13.40Q3.21 13.45 3.05 13.45L3.05 13.45Q2.97 13.45 2.57 13.45Q2.17 13.44 1.89 13.44L1.89 13.44Q1.58 13.44 1.20 13.47Q0.81 13.50 0.69 13.50L0.69 13.50Q0.28 13.50 0.28 13.33ZM3.79 8.71L3.79 8.71Q3.79 8.89 3.92 8.93Q4.05 8.97 4.51 8.97L4.51 8.97L4.94 8.97L6.27 8.96Q6.82 8.96 6.82 8.74L6.82 8.74Q6.82 8.55 6.13 7.01Q5.45 5.46 5.26 5.46L5.26 5.46Q5.14 5.46 4.47 7.01Q3.79 8.55 3.79 8.71ZM28.63 3.65L28.63 3.65Q28.63 3.50 29.02 3.50L29.02 3.50Q29.16 3.50 29.67 3.53Q30.17 3.56 30.60 3.56L30.60 3.56Q30.87 3.56 31.12 3.54Q31.36 3.53 31.84 3.53L31.84 3.53Q32.14 3.53 32.14 3.72L32.14 3.72Q32.14 3.96 31.65 3.96L31.65 3.96Q31.37 3.96 31.25 4.54Q31.12 5.11 31.12 5.71L31.12 5.71L31.12 6.23Q31.12 6.57 31.11 6.99Q31.09 7.42 31.09 7.52L31.09 7.52Q31.09 7.87 31.18 7.97Q31.26 8.06 31.57 8.06L31.57 8.06Q31.60 8.06 32.12 8.06Q32.63 8.05 33.87 8.05L33.87 8.05Q33.98 8.05 34.24 8.06Q34.51 8.06 35.12 8.07Q35.73 8.08 36.51 8.08L36.51 8.08Q36.61 8.08 36.64 7.84L36.64 7.84Q36.67 7.56 36.67 6.13L36.67 6.13L36.67 5.38Q36.67 4.83 36.55 4.51Q36.43 4.19 36.25 4.09Q36.08 3.99 35.90 3.96Q35.73 3.93 35.61 3.88Q35.49 3.84 35.49 3.70Q35.49 3.56 36.04 3.56L36.04 3.56Q36.18 3.56 36.64 3.57Q37.10 3.58 37.39 3.58L37.39 3.58Q37.53 3.58 37.87 3.57Q38.21 3.56 38.49 3.56L38.49 3.56Q38.81 3.56 38.81 3.74Q38.81 3.92 38.61 3.92L38.61 3.92Q38.22 3.92 38.02 4.16Q37.81 4.40 37.81 4.79L37.81 4.79Q37.81 5.25 37.79 6.42Q37.77 7.59 37.77 8.19L37.77 8.19Q37.77 8.51 37.76 9.20Q37.74 9.90 37.74 10.29L37.74 10.29L37.74 10.81Q37.74 11.23 37.77 11.58Q37.80 11.94 37.80 12.10L37.80 12.10Q37.80 13.01 38.98 13.13L38.98 13.13Q39.14 13.13 39.14 13.29L39.14 13.29Q39.14 13.38 39.00 13.41Q38.86 13.44 38.46 13.44L38.46 13.44Q38.30 13.44 37.95 13.40Q37.59 13.37 37.38 13.37L37.38 13.37Q37.13 13.37 36.77 13.40Q36.41 13.44 36.06 13.44L36.06 13.44Q35.90 13.44 35.83 13.44Q35.76 13.44 35.68 13.42Q35.60 13.40 35.58 13.36Q35.56 13.33 35.56 13.26L35.56 13.26Q35.56 13.17 35.70 13.10Q35.84 13.03 36.01 12.99Q36.18 12.95 36.34 12.83Q36.50 12.71 36.53 12.53L36.53 12.53Q36.62 12.03 36.62 11.51L36.62 11.51Q36.62 11.37 36.63 11.12Q36.64 10.86 36.64 10.75L36.64 10.75Q36.64 10.50 36.65 9.93Q36.67 9.35 36.67 9.03L36.67 9.03Q36.67 8.82 36.50 8.74Q36.33 8.65 35.78 8.65L35.78 8.65Q35.57 8.65 34.82 8.68L34.82 8.68L34.06 8.69Q33.45 8.69 32.68 8.67Q31.91 8.65 31.49 8.65L31.49 8.65Q31.28 8.65 31.21 8.74Q31.14 8.82 31.14 9.17Q31.14 9.52 31.11 10.08Q31.08 10.64 31.08 10.89L31.08 10.89L31.08 11.49Q31.08 12.10 31.19 12.39Q31.30 12.68 31.74 12.96L31.74 12.96Q31.85 13.03 32.34 13.03L32.34 13.03Q32.44 13.03 32.52 13.08Q32.61 13.13 32.61 13.19L32.61 13.19Q32.61 13.44 32.16 13.44L32.16 13.44Q31.74 13.44 31.47 13.41Q31.19 13.38 31.00 13.38L31.00 13.38Q30.60 13.38 30.16 13.42Q29.71 13.45 29.48 13.45L29.48 13.45Q28.83 13.45 28.83 13.24L28.83 13.24Q28.83 13.12 28.96 13.07Q29.09 13.02 29.26 13.00Q29.43 12.98 29.61 12.82Q29.79 12.66 29.86 12.35L29.86 12.35Q29.90 12.11 29.97 10.91Q30.04 9.70 30.04 8.61L30.04 8.61L30.04 7.81Q30.04 7.63 30.05 7.12Q30.06 6.61 30.06 6.30L30.06 6.30Q30.06 5.24 29.97 4.63L29.97 4.63Q29.93 4.28 29.60 4.09Q29.27 3.89 28.92 3.89L28.92 3.89Q28.78 3.89 28.71 3.80Q28.63 3.71 28.63 3.65ZM46.70 13.33L46.70 13.33Q46.70 13.13 46.91 13.06L46.91 13.06Q47.36 12.89 47.70 12.31Q48.03 11.73 49.36 8.83L49.36 8.83Q50.74 5.87 51.79 3.63L51.79 3.63Q51.88 3.42 51.96 3.36Q52.04 3.30 52.21 3.30L52.21 3.30Q52.33 3.30 52.37 3.36Q52.42 3.42 52.56 3.82L52.56 3.82Q52.64 4.06 52.70 4.23Q52.77 4.40 52.91 4.77Q53.05 5.15 53.21 5.56L53.21 5.56Q53.66 6.66 54.76 9.22Q55.86 11.77 55.96 11.98L55.96 11.98Q56.20 12.46 56.49 12.71Q56.78 12.95 57.00 12.97Q57.22 12.99 57.37 13.04Q57.51 13.09 57.51 13.26L57.51 13.26Q57.51 13.47 57.13 13.47L57.13 13.47Q56.98 13.47 56.53 13.43Q56.08 13.38 55.87 13.38L55.87 13.38Q55.61 13.38 55.19 13.41Q54.77 13.44 54.57 13.44L54.57 13.44Q54.14 13.44 54.02 13.40Q53.90 13.37 53.90 13.24L53.90 13.24Q53.90 13.15 54.01 13.08Q54.12 13.02 54.25 13.00Q54.38 12.98 54.49 12.87Q54.60 12.77 54.60 12.59L54.60 12.59Q54.60 12.28 54.25 11.33Q53.90 10.37 53.66 9.93L53.66 9.93Q53.54 9.69 53.09 9.69L53.09 9.69Q53.02 9.69 52.47 9.70Q51.93 9.72 51.39 9.72L51.39 9.72L50.65 9.72Q50.02 9.72 49.86 9.79Q49.70 9.86 49.57 10.12L49.57 10.12Q49.49 10.30 49.29 10.70Q49.10 11.10 49.03 11.26Q48.96 11.41 48.85 11.65Q48.75 11.90 48.71 12.05Q48.68 12.19 48.68 12.31L48.68 12.31Q48.68 12.63 48.84 12.80Q49 12.96 49.20 12.98Q49.39 13.01 49.55 13.06Q49.71 13.12 49.71 13.26L49.71 13.26Q49.71 13.36 49.67 13.40Q49.63 13.45 49.48 13.45L49.48 13.45Q49.39 13.45 48.99 13.45Q48.59 13.44 48.31 13.44L48.31 13.44Q48.01 13.44 47.62 13.47Q47.24 13.50 47.11 13.50L47.11 13.50Q46.70 13.50 46.70 13.33ZM50.22 8.71L50.22 8.71Q50.22 8.89 50.34 8.93Q50.47 8.97 50.93 8.97L50.93 8.97L51.37 8.97L52.70 8.96Q53.24 8.96 53.24 8.74L53.24 8.74Q53.24 8.55 52.56 7.01Q51.87 5.46 51.69 5.46L51.69 5.46Q51.56 5.46 50.89 7.01Q50.22 8.55 50.22 8.71ZM63.10 3.70L63.10 3.70Q63.10 3.50 63.49 3.50L63.49 3.50Q63.56 3.50 64.03 3.53Q64.50 3.56 65.03 3.56L65.03 3.56Q65.16 3.56 65.47 3.54Q65.79 3.53 65.94 3.53L65.94 3.53Q66.26 3.53 66.33 3.56Q66.40 3.58 66.40 3.68L66.40 3.68Q66.40 3.77 66.26 3.84Q66.12 3.91 65.98 4.02Q65.83 4.14 65.83 4.34L65.83 4.34Q65.83 4.52 65.88 4.71Q65.93 4.90 66.09 5.29Q66.26 5.68 66.44 6.08Q66.61 6.47 67.01 7.34Q67.41 8.22 67.79 9.07L67.79 9.07Q68.96 11.77 69.19 11.77L69.19 11.77Q69.26 11.77 69.99 10.08Q70.73 8.39 71.44 6.54Q72.16 4.69 72.16 4.35L72.16 4.35Q72.16 4.13 72.00 4.01Q71.83 3.89 71.65 3.87Q71.47 3.85 71.31 3.80Q71.15 3.75 71.15 3.64L71.15 3.64Q71.15 3.54 71.20 3.52Q71.25 3.50 71.44 3.50L71.44 3.50Q71.48 3.50 71.76 3.51Q72.04 3.51 72.32 3.51L72.32 3.51Q72.58 3.51 72.89 3.50Q73.21 3.49 73.57 3.49L73.57 3.49Q73.84 3.49 73.84 3.68L73.84 3.68Q73.84 3.78 73.75 3.85Q73.65 3.92 73.53 3.98Q73.40 4.03 73.23 4.21Q73.07 4.40 72.94 4.69L72.94 4.69L69.82 11.80Q69.48 12.56 69.16 13.34L69.16 13.34Q69.01 13.72 68.96 13.79Q68.92 13.86 68.85 13.86L68.85 13.86Q68.60 13.86 68.22 12.89L68.22 12.89Q67.86 11.98 66.78 9.65L66.78 9.65Q66.25 8.48 65.81 7.50Q65.38 6.52 65.19 6.06Q65.00 5.60 64.84 5.24Q64.68 4.87 64.60 4.72Q64.51 4.56 64.40 4.44L64.40 4.44Q64.16 4.17 63.90 4.06Q63.64 3.95 63.48 3.96Q63.32 3.96 63.21 3.91Q63.10 3.86 63.10 3.70ZM81.40 3.65L81.40 3.65Q81.40 3.46 81.79 3.46L81.79 3.46Q81.84 3.46 81.97 3.47Q82.10 3.49 82.17 3.49L82.17 3.49Q82.21 3.49 83.48 3.52Q84.76 3.56 85.58 3.56L85.58 3.56Q85.88 3.56 87.03 3.53Q88.19 3.50 88.38 3.50L88.38 3.50Q88.65 3.50 88.65 3.82L88.65 3.82Q88.65 3.91 88.56 4.38Q88.48 4.84 88.48 5.25L88.48 5.25Q88.48 5.38 88.41 5.47Q88.34 5.56 88.26 5.56L88.26 5.56Q88.05 5.56 88.05 5.26L88.05 5.26Q88.05 4.89 87.81 4.58Q87.57 4.27 87.22 4.26L87.22 4.26Q85.96 4.16 85.29 4.16L85.29 4.16L84.92 4.16Q84.20 4.16 84.08 4.26Q83.96 4.37 83.93 5.01L83.93 5.01Q83.87 6.02 83.87 7.35L83.87 7.35Q83.87 8.05 84.14 8.06L84.14 8.06L84.49 8.06L85.08 8.06L85.51 8.06Q86.35 8.06 86.63 8.01Q86.91 7.95 87.14 7.80L87.14 7.80Q87.40 7.62 87.46 7.28L87.46 7.28Q87.50 7.04 87.65 7.04L87.65 7.04Q87.78 7.04 87.81 7.08Q87.84 7.13 87.84 7.27L87.84 7.27Q87.84 7.36 87.78 7.91Q87.72 8.46 87.72 8.74L87.72 8.74Q87.72 9.00 87.75 9.24Q87.77 9.48 87.77 9.59L87.77 9.59Q87.77 9.94 87.67 9.94L87.67 9.94Q87.46 9.94 87.36 9.60L87.36 9.60Q87.16 9.02 87.01 8.92L87.01 8.92Q86.72 8.72 85.67 8.72L85.67 8.72Q85.25 8.72 84.99 8.72Q84.73 8.72 84.65 8.71Q84.57 8.71 84.53 8.71Q84.48 8.71 84.43 8.71L84.43 8.71Q83.86 8.71 83.86 8.97L83.86 8.97Q83.86 9.38 83.85 9.99Q83.83 10.60 83.83 10.99L83.83 10.99L83.83 11.55Q83.83 12.56 84.17 12.66L84.17 12.66Q84.52 12.77 84.77 12.77L84.77 12.77Q85.82 12.77 86.61 12.67Q87.40 12.57 87.80 12.42Q88.20 12.28 88.47 12.10Q88.73 11.93 88.81 11.78Q88.89 11.63 88.96 11.54Q89.04 11.44 89.12 11.44L89.12 11.44Q89.29 11.44 89.29 11.68L89.29 11.68Q89.29 12.28 88.69 12.89Q88.09 13.51 87.64 13.51L87.64 13.51Q86.63 13.51 85.36 13.44Q84.10 13.37 83.79 13.37L83.79 13.37Q83.40 13.37 82.81 13.43Q82.22 13.50 81.89 13.50L81.89 13.50Q81.59 13.50 81.59 13.36L81.59 13.36Q81.59 13.23 81.59 13.19Q81.59 13.15 81.63 13.12Q81.68 13.09 81.72 13.08Q81.77 13.08 81.91 13.03Q82.04 12.99 82.19 12.92L82.19 12.92Q82.53 12.75 82.64 12.26Q82.74 11.77 82.74 10.21L82.74 10.21L82.74 8.47Q82.74 8.09 82.76 7.29Q82.78 6.50 82.78 6.05L82.78 6.05Q82.78 5.67 82.75 4.77L82.75 4.77Q82.74 4.37 82.40 4.14Q82.07 3.92 81.62 3.91L81.62 3.91Q81.40 3.91 81.40 3.65ZM96.85 3.77L96.85 3.77Q96.85 3.68 96.95 3.60Q97.05 3.53 97.20 3.53L97.20 3.53Q97.29 3.53 97.48 3.54Q97.68 3.54 97.73 3.54L97.73 3.54Q97.94 3.54 98.13 3.53Q98.31 3.51 98.42 3.51L98.42 3.51Q98.55 3.51 98.71 3.59Q98.88 3.67 98.91 3.75L98.91 3.75Q98.94 3.79 99.06 3.94Q99.19 4.09 99.40 4.33Q99.61 4.56 99.78 4.79L99.78 4.79Q101.68 7.27 104.87 10.77L104.87 10.77Q104.96 10.86 105.08 10.99Q105.20 11.12 105.25 11.18Q105.29 11.24 105.35 11.30Q105.41 11.35 105.44 11.38Q105.48 11.40 105.50 11.40L105.50 11.40Q105.64 11.40 105.64 10.53L105.64 10.53L105.64 8.89Q105.64 7.95 105.64 7.31Q105.63 6.66 105.62 6.38Q105.62 6.09 105.62 6.02L105.62 6.02L105.62 5.92Q105.62 5.45 105.55 5.11Q105.49 4.77 105.41 4.59Q105.32 4.41 105.16 4.28Q105 4.16 104.89 4.12Q104.78 4.09 104.57 4.05Q104.36 4.00 104.27 3.98L104.27 3.98Q103.99 3.89 103.99 3.74L103.99 3.74Q103.99 3.53 104.26 3.53L104.26 3.53Q104.34 3.53 104.93 3.54Q105.52 3.54 105.59 3.54L105.59 3.54Q105.92 3.54 106.34 3.53Q106.75 3.51 106.85 3.51L106.85 3.51Q107.09 3.51 107.18 3.56Q107.27 3.61 107.27 3.75L107.27 3.75Q107.27 3.81 107.19 3.86Q107.11 3.91 107.03 3.94Q106.95 3.98 106.86 4.00L106.86 4.00L106.78 4.03Q106.32 4.28 106.32 5.61L106.32 5.61L106.32 6.15Q106.32 7.21 106.24 9.83Q106.16 12.46 106.16 13.08L106.16 13.08L106.16 13.36Q106.16 13.68 105.97 13.68L105.97 13.68Q105.84 13.68 105.74 13.58L105.74 13.58Q101.09 8.19 100.19 7.17Q99.29 6.16 99.19 6.16L99.19 6.16Q99.05 6.16 99.05 7.11L99.05 7.11Q99.05 8.44 98.99 9.97Q98.94 11.51 98.94 11.65L98.94 11.65Q98.94 12.28 99.16 12.61Q99.37 12.94 99.62 12.98Q99.88 13.02 100.09 13.07Q100.31 13.12 100.31 13.26L100.31 13.26Q100.31 13.41 100.26 13.45Q100.21 13.50 100.09 13.50L100.09 13.50Q99.99 13.50 99.64 13.48Q99.30 13.47 98.59 13.47L98.59 13.47Q98.46 13.47 98.07 13.48Q97.68 13.50 97.40 13.50L97.40 13.50Q97.09 13.50 97.09 13.27L97.09 13.27Q97.09 13.15 97.27 13.11Q97.45 13.08 97.72 12.89Q97.99 12.71 98.13 12.21L98.13 12.21Q98.21 11.89 98.34 9.60Q98.46 7.32 98.46 6.45L98.46 6.45Q98.46 5.25 98.13 4.65Q97.79 4.06 97.03 3.98L97.03 3.98Q96.85 3.96 96.85 3.77ZM125.01 3.68L125.01 3.68Q125.01 3.64 125.03 3.60Q125.05 3.56 125.14 3.50Q125.23 3.44 125.37 3.44L125.37 3.44L125.75 3.44Q126.08 3.44 126.83 3.49Q127.58 3.53 128.79 3.53L128.79 3.53Q129.78 3.53 130.55 3.49Q131.32 3.46 131.96 3.46L131.96 3.46Q132.20 3.46 132.20 3.79L132.20 3.79Q132.20 3.92 132.17 4.11Q132.15 4.30 132.09 4.61Q132.03 4.93 132.01 5.22L132.01 5.22Q131.98 5.50 131.80 5.50L131.80 5.50Q131.60 5.50 131.60 5.22L131.60 5.22Q131.60 4.30 130.96 4.26L130.96 4.26Q128.84 4.09 128.44 4.09L128.44 4.09Q127.81 4.09 127.66 4.24Q127.51 4.40 127.50 4.87L127.50 4.87Q127.50 4.94 127.50 4.98L127.50 4.98Q127.46 5.74 127.46 7.32L127.46 7.32Q127.46 8.01 127.71 8.02L127.71 8.02Q127.78 8.02 127.90 8.03Q128.02 8.04 128.06 8.04L128.06 8.04Q128.16 8.04 128.35 8.03Q128.55 8.02 128.66 8.02L128.66 8.02L129.09 8.02Q129.93 8.02 130.21 7.97Q130.48 7.92 130.70 7.77L130.70 7.77Q130.83 7.69 130.90 7.57Q130.97 7.46 131.00 7.31Q131.03 7.15 131.07 7.08Q131.11 7.01 131.24 7.01Q131.36 7.01 131.39 7.06Q131.42 7.10 131.42 7.24L131.42 7.24Q131.42 7.34 131.35 7.73Q131.29 8.12 131.29 8.40L131.29 8.40Q131.29 8.67 131.34 9.05Q131.39 9.44 131.39 9.55L131.39 9.55Q131.39 9.77 131.34 9.83Q131.29 9.90 131.19 9.90L131.19 9.90Q130.96 9.90 130.90 9.55L130.90 9.55Q130.90 9.52 130.89 9.42Q130.87 9.32 130.87 9.28Q130.86 9.24 130.83 9.16Q130.80 9.09 130.77 9.04Q130.75 9.00 130.70 8.95Q130.66 8.90 130.59 8.88L130.59 8.88Q130.40 8.79 129.89 8.74Q129.39 8.68 129.23 8.68L129.23 8.68L128.02 8.68Q127.44 8.68 127.44 8.95L127.44 8.95Q127.44 9.35 127.43 9.96Q127.41 10.57 127.41 10.96L127.41 10.96Q127.41 11.06 127.41 11.25Q127.40 11.44 127.40 11.52L127.40 11.52Q127.40 11.80 127.46 12.08Q127.51 12.36 127.78 12.67Q128.06 12.98 128.52 12.98L128.52 12.98Q128.94 12.98 128.94 13.23L128.94 13.23Q128.94 13.27 128.91 13.33Q128.88 13.38 128.78 13.44Q128.67 13.50 128.51 13.50L128.51 13.50Q128.28 13.50 127.80 13.44Q127.32 13.38 127.15 13.38L127.15 13.38Q126.76 13.38 126.27 13.43Q125.79 13.47 125.45 13.47L125.45 13.47Q125.17 13.47 125.17 13.31L125.17 13.31Q125.17 13.13 125.24 13.09Q125.30 13.05 125.78 12.88L125.78 12.88Q126.14 12.75 126.22 12.13Q126.31 11.51 126.32 9.60L126.32 9.60Q126.32 8.86 126.32 8.44L126.32 8.44Q126.32 8.06 126.34 7.26Q126.36 6.45 126.36 6.01L126.36 6.01L126.36 5.19Q126.36 4.27 125.71 3.96L125.71 3.96Q125.61 3.92 125.47 3.90Q125.33 3.88 125.24 3.88Q125.15 3.88 125.08 3.83Q125.01 3.78 125.01 3.68ZM139.76 3.71L139.76 3.71Q139.76 3.50 140.15 3.50L140.15 3.50Q140.29 3.50 140.80 3.53Q141.30 3.56 141.74 3.56L141.74 3.56Q142.00 3.56 142.25 3.54Q142.49 3.53 142.97 3.53L142.97 3.53Q143.35 3.53 143.35 3.72L143.35 3.72Q143.35 3.84 142.70 4.10L142.70 4.10Q142.25 4.28 142.25 5.71L142.25 5.71Q142.25 7.60 142.23 9.05Q142.21 10.50 142.21 10.89L142.21 10.89Q142.21 12.07 142.56 12.59L142.56 12.59Q142.87 13.02 143.23 13.02L143.23 13.02Q143.26 13.02 143.37 13.03Q143.49 13.03 143.51 13.03L143.51 13.03Q143.61 13.03 143.71 13.08Q143.81 13.13 143.81 13.19L143.81 13.19Q143.81 13.34 143.73 13.39Q143.65 13.44 143.46 13.44L143.46 13.44Q143.04 13.44 142.68 13.41Q142.32 13.38 142.13 13.38L142.13 13.38Q141.74 13.38 141.27 13.42Q140.81 13.45 140.59 13.45L140.59 13.45Q139.96 13.45 139.96 13.24L139.96 13.24Q139.96 13.12 140.09 13.07Q140.22 13.02 140.39 13.00Q140.56 12.98 140.74 12.82Q140.92 12.66 140.99 12.35L140.99 12.35Q141.02 12.25 141.09 10.76Q141.15 9.27 141.15 8.61L141.15 8.61L141.15 7.81Q141.15 7.63 141.16 7.12Q141.16 6.61 141.16 6.30L141.16 6.30L141.16 5.66Q141.16 5.04 141.11 4.63L141.11 4.63Q141.06 4.30 140.74 4.12Q140.41 3.93 140.06 3.92L140.06 3.92Q139.76 3.91 139.76 3.71ZM151.35 5.32L151.35 5.32Q151.35 4.76 151.49 3.88L151.49 3.88Q151.49 3.85 151.50 3.78Q151.51 3.71 151.52 3.69Q151.52 3.67 151.53 3.62Q151.54 3.57 151.55 3.55Q151.56 3.53 151.59 3.49Q151.61 3.46 151.63 3.44Q151.66 3.43 151.70 3.42Q151.75 3.40 151.80 3.39Q151.86 3.39 151.93 3.39L151.93 3.39Q152.15 3.39 153.11 3.44Q154.07 3.50 155.88 3.50L155.88 3.50Q158.96 3.50 160.19 3.43L160.19 3.43Q160.20 3.43 160.24 3.42Q160.27 3.42 160.29 3.42L160.29 3.42Q160.44 3.42 160.50 3.50Q160.55 3.58 160.55 3.65L160.55 3.65Q160.55 3.75 160.59 4.24Q160.64 4.73 160.64 4.79L160.64 4.79Q160.64 5.14 160.59 5.23Q160.55 5.32 160.41 5.32L160.41 5.32Q160.30 5.32 160.26 5.15L160.26 5.15Q160.15 4.75 160.06 4.60Q159.98 4.45 159.70 4.34Q159.42 4.23 158.84 4.23L158.84 4.23L157.02 4.23Q156.69 4.23 156.61 4.36Q156.53 4.49 156.53 5.12L156.53 5.12L156.53 5.81Q156.53 7.69 156.51 9.11Q156.49 10.54 156.49 10.93L156.49 10.93Q156.49 11.13 156.49 11.43Q156.48 11.73 156.48 11.84L156.48 11.84Q156.48 12.45 156.67 12.64L156.67 12.64Q156.86 12.81 157.08 12.90Q157.30 12.99 157.47 13.01Q157.63 13.02 157.74 13.08Q157.85 13.13 157.85 13.26L157.85 13.26Q157.85 13.41 157.78 13.45Q157.71 13.50 157.51 13.50L157.51 13.50Q157.35 13.50 156.77 13.44Q156.20 13.38 155.96 13.38L155.96 13.38Q155.79 13.38 155.28 13.43Q154.77 13.48 154.53 13.48L154.53 13.48Q154.01 13.48 154.01 13.26L154.01 13.26Q154.01 13.12 154.10 13.07Q154.18 13.02 154.43 12.98Q154.67 12.95 154.74 12.94L154.74 12.94Q155.22 12.82 155.27 12.38L155.27 12.38Q155.41 11.14 155.41 7.08L155.41 7.08L155.40 4.58Q155.40 4.31 155.25 4.25Q155.09 4.19 154.34 4.19L154.34 4.19Q153.36 4.19 152.86 4.24Q152.36 4.30 152.28 4.35Q152.19 4.40 152.08 4.54L152.08 4.54Q151.96 4.70 151.88 4.91Q151.80 5.11 151.78 5.24Q151.76 5.38 151.70 5.47Q151.63 5.56 151.51 5.56L151.51 5.56Q151.35 5.56 151.35 5.32ZM178.18 3.68L178.18 3.68Q178.18 3.64 178.20 3.60Q178.22 3.56 178.31 3.50Q178.40 3.44 178.54 3.44L178.54 3.44L178.92 3.44Q179.26 3.44 180.01 3.49Q180.75 3.53 181.96 3.53L181.96 3.53Q182.95 3.53 183.72 3.49Q184.49 3.46 185.14 3.46L185.14 3.46Q185.37 3.46 185.37 3.79L185.37 3.79Q185.37 3.92 185.35 4.11Q185.32 4.30 185.26 4.61Q185.21 4.93 185.18 5.22L185.18 5.22Q185.15 5.50 184.97 5.50L184.97 5.50Q184.77 5.50 184.77 5.22L184.77 5.22Q184.77 4.30 184.13 4.26L184.13 4.26Q182.01 4.09 181.61 4.09L181.61 4.09Q180.98 4.09 180.83 4.24Q180.68 4.40 180.67 4.87L180.67 4.87Q180.67 4.94 180.67 4.98L180.67 4.98Q180.63 5.74 180.63 7.32L180.63 7.32Q180.63 8.01 180.88 8.02L180.88 8.02Q180.95 8.02 181.07 8.03Q181.19 8.04 181.23 8.04L181.23 8.04Q181.33 8.04 181.52 8.03Q181.72 8.02 181.83 8.02L181.83 8.02L182.27 8.02Q183.11 8.02 183.38 7.97Q183.65 7.92 183.88 7.77L183.88 7.77Q184.00 7.69 184.07 7.57Q184.14 7.46 184.17 7.31Q184.20 7.15 184.24 7.08Q184.28 7.01 184.41 7.01Q184.53 7.01 184.56 7.06Q184.59 7.10 184.59 7.24L184.59 7.24Q184.59 7.34 184.53 7.73Q184.46 8.12 184.46 8.40L184.46 8.40Q184.46 8.67 184.51 9.05Q184.56 9.44 184.56 9.55L184.56 9.55Q184.56 9.77 184.51 9.83Q184.46 9.90 184.37 9.90L184.37 9.90Q184.13 9.90 184.07 9.55L184.07 9.55Q184.07 9.52 184.06 9.42Q184.04 9.32 184.04 9.28Q184.03 9.24 184.00 9.16Q183.97 9.09 183.95 9.04Q183.92 9.00 183.88 8.95Q183.83 8.90 183.76 8.88L183.76 8.88Q183.57 8.79 183.06 8.74Q182.56 8.68 182.41 8.68L182.41 8.68L181.19 8.68Q180.61 8.68 180.61 8.95L180.61 8.95Q180.61 9.35 180.60 9.96Q180.59 10.57 180.59 10.96L180.59 10.96Q180.59 11.06 180.58 11.25Q180.57 11.44 180.57 11.52L180.57 11.52Q180.57 11.80 180.63 12.08Q180.68 12.36 180.96 12.67Q181.23 12.98 181.69 12.98L181.69 12.98Q182.11 12.98 182.11 13.23L182.11 13.23Q182.11 13.27 182.08 13.33Q182.06 13.38 181.95 13.44Q181.85 13.50 181.68 13.50L181.68 13.50Q181.45 13.50 180.97 13.44Q180.49 13.38 180.32 13.38L180.32 13.38Q179.93 13.38 179.45 13.43Q178.96 13.47 178.63 13.47L178.63 13.47Q178.35 13.47 178.35 13.31L178.35 13.31Q178.35 13.13 178.41 13.09Q178.47 13.05 178.95 12.88L178.95 12.88Q179.31 12.75 179.40 12.13Q179.48 11.51 179.49 9.60L179.49 9.60Q179.49 8.86 179.49 8.44L179.49 8.44Q179.49 8.06 179.52 7.26Q179.54 6.45 179.54 6.01L179.54 6.01L179.54 5.19Q179.54 4.27 178.88 3.96L178.88 3.96Q178.78 3.92 178.64 3.90Q178.50 3.88 178.41 3.88Q178.32 3.88 178.25 3.83Q178.18 3.78 178.18 3.68ZM193.27 8.69L193.27 8.69Q193.27 6.34 194.68 4.84Q196.10 3.33 198.69 3.33L198.69 3.33Q199.89 3.33 200.86 3.68Q201.82 4.03 202.38 4.54Q202.94 5.05 203.32 5.71Q203.70 6.37 203.84 6.92Q203.98 7.48 203.98 7.95L203.98 7.95Q203.98 9.86 203.24 11.16Q202.50 12.47 201.29 13.07Q200.07 13.66 198.49 13.66L198.49 13.66Q196.83 13.66 195.62 12.94Q194.40 12.21 193.84 11.10Q193.27 10.00 193.27 8.69ZM194.50 7.98L194.50 7.98Q194.50 8.54 194.66 9.19Q194.81 9.84 195.16 10.54Q195.51 11.23 196.01 11.78Q196.50 12.33 197.27 12.69Q198.03 13.05 198.94 13.05L198.94 13.05Q199.42 13.05 199.94 12.90Q200.47 12.75 200.98 12.45Q201.50 12.14 201.91 11.70Q202.31 11.26 202.57 10.62Q202.83 9.98 202.83 9.24L202.83 9.24Q202.83 6.71 201.50 5.30Q200.17 3.89 198.21 3.89L198.21 3.89Q196.67 3.89 195.59 4.93Q194.50 5.96 194.50 7.98ZM211.88 3.70L211.88 3.70Q211.88 3.47 212.28 3.47L212.28 3.47L214.61 3.47Q214.93 3.47 215.35 3.45Q215.77 3.43 216.01 3.43L216.01 3.43Q217.27 3.43 218.16 4.07Q219.06 4.70 219.06 5.78L219.06 5.78Q219.06 6.50 218.79 7.03Q218.51 7.57 218.18 7.81Q217.85 8.05 217.58 8.22Q217.31 8.40 217.31 8.46L217.31 8.46Q217.31 8.62 218.48 10.27Q219.66 11.91 220.09 12.38L220.09 12.38Q220.63 13.03 221.38 13.03L221.38 13.03Q221.58 13.03 221.58 13.20L221.58 13.20Q221.58 13.41 221.41 13.48Q221.24 13.55 220.54 13.55L220.54 13.55Q219.88 13.55 219.34 13.23L219.34 13.23Q218.64 12.82 216.97 10.09L216.97 10.09Q216.87 9.94 216.83 9.87L216.83 9.87Q216.16 8.78 215.80 8.78L215.80 8.78L215.50 8.78L214.65 8.78Q214.48 8.78 214.45 8.92Q214.41 9.06 214.41 9.77L214.41 9.77Q214.41 10.44 214.41 10.88Q214.41 11.31 214.42 11.43Q214.42 11.55 214.42 11.63Q214.42 11.70 214.42 11.75L214.42 11.75Q214.42 12.32 214.69 12.63Q214.96 12.95 215.29 13.00Q215.61 13.05 215.88 13.11Q216.15 13.17 216.15 13.31L216.15 13.31Q216.15 13.54 215.89 13.54L215.89 13.54Q215.88 13.54 214.93 13.49Q213.98 13.44 213.89 13.44L213.89 13.44Q213.49 13.44 212.93 13.47Q212.37 13.50 212.35 13.50L212.35 13.50Q212.06 13.50 212.06 13.27L212.06 13.27Q212.06 13.12 212.24 13.05Q212.42 12.99 212.65 12.96Q212.87 12.94 213.05 12.66Q213.23 12.38 213.23 11.86L213.23 11.86Q213.23 11.49 213.24 9.90Q213.25 8.30 213.25 7.45L213.25 7.45Q213.25 6.58 213.24 5.86Q213.23 5.14 213.23 5.08L213.23 5.08Q213.23 4.56 213.02 4.29Q212.81 4.02 212.56 3.98Q212.30 3.95 212.09 3.89Q211.88 3.84 211.88 3.70ZM214.41 5.54L214.41 5.94Q214.41 7.38 214.42 7.72Q214.44 8.06 214.52 8.12L214.52 8.12Q214.73 8.25 215.12 8.25L215.12 8.25L215.26 8.25L215.67 8.25Q216.86 8.25 217.37 7.70Q217.88 7.15 217.88 6.30L217.88 6.30Q217.88 5.43 217.20 4.72Q216.52 4.00 215.15 4.00L215.15 4.00Q214.63 4.00 214.52 4.28Q214.41 4.55 214.41 5.54L214.41 5.54ZM238.91 3.70L238.91 3.70Q238.91 3.47 239.32 3.47L239.32 3.47L241.64 3.47Q241.96 3.47 242.38 3.45Q242.80 3.43 243.04 3.43L243.04 3.43Q244.30 3.43 245.20 4.07Q246.09 4.70 246.09 5.78L246.09 5.78Q246.09 6.50 245.82 7.03Q245.55 7.57 245.22 7.81Q244.89 8.05 244.62 8.22Q244.34 8.40 244.34 8.46L244.34 8.46Q244.34 8.62 245.52 10.27Q246.69 11.91 247.13 12.38L247.13 12.38Q247.66 13.03 248.42 13.03L248.42 13.03Q248.61 13.03 248.61 13.20L248.61 13.20Q248.61 13.41 248.44 13.48Q248.28 13.55 247.58 13.55L247.58 13.55Q246.92 13.55 246.37 13.23L246.37 13.23Q245.67 12.82 244.01 10.09L244.01 10.09Q243.91 9.94 243.87 9.87L243.87 9.87Q243.19 8.78 242.83 8.78L242.83 8.78L242.54 8.78L241.68 8.78Q241.51 8.78 241.48 8.92Q241.44 9.06 241.44 9.77L241.44 9.77Q241.44 10.44 241.44 10.88Q241.44 11.31 241.45 11.43Q241.46 11.55 241.46 11.63Q241.46 11.70 241.46 11.75L241.46 11.75Q241.46 12.32 241.72 12.63Q241.99 12.95 242.32 13.00Q242.65 13.05 242.91 13.11Q243.18 13.17 243.18 13.31L243.18 13.31Q243.18 13.54 242.93 13.54L242.93 13.54Q242.91 13.54 241.96 13.49Q241.01 13.44 240.93 13.44L240.93 13.44Q240.52 13.44 239.96 13.47Q239.40 13.50 239.39 13.50L239.39 13.50Q239.09 13.50 239.09 13.27L239.09 13.27Q239.09 13.12 239.27 13.05Q239.46 12.99 239.68 12.96Q239.90 12.94 240.09 12.66Q240.27 12.38 240.27 11.86L240.27 11.86Q240.27 11.49 240.28 9.90Q240.28 8.30 240.28 7.45L240.28 7.45Q240.28 6.58 240.28 5.86Q240.27 5.14 240.27 5.08L240.27 5.08Q240.27 4.56 240.06 4.29Q239.85 4.02 239.59 3.98Q239.33 3.95 239.12 3.89Q238.91 3.84 238.91 3.70ZM241.44 5.54L241.44 5.94Q241.44 7.38 241.46 7.72Q241.47 8.06 241.56 8.12L241.56 8.12Q241.77 8.25 242.16 8.25L242.16 8.25L242.30 8.25L242.70 8.25Q243.89 8.25 244.41 7.70Q244.92 7.15 244.92 6.30L244.92 6.30Q244.92 5.43 244.24 4.72Q243.56 4.00 242.19 4.00L242.19 4.00Q241.67 4.00 241.56 4.28Q241.44 4.55 241.44 5.54L241.44 5.54ZM255.89 8.69L255.89 8.69Q255.89 6.34 257.31 4.84Q258.72 3.33 261.31 3.33L261.31 3.33Q262.51 3.33 263.48 3.68Q264.45 4.03 265.01 4.54Q265.57 5.05 265.94 5.71Q266.32 6.37 266.46 6.92Q266.60 7.48 266.60 7.95L266.60 7.95Q266.60 9.86 265.86 11.16Q265.12 12.47 263.91 13.07Q262.70 13.66 261.11 13.66L261.11 13.66Q259.45 13.66 258.24 12.94Q257.03 12.21 256.46 11.10Q255.89 10.00 255.89 8.69ZM257.12 7.98L257.12 7.98Q257.12 8.54 257.28 9.19Q257.43 9.84 257.78 10.54Q258.13 11.23 258.63 11.78Q259.13 12.33 259.89 12.69Q260.65 13.05 261.56 13.05L261.56 13.05Q262.04 13.05 262.56 12.90Q263.09 12.75 263.61 12.45Q264.12 12.14 264.53 11.70Q264.94 11.26 265.19 10.62Q265.45 9.98 265.45 9.24L265.45 9.24Q265.45 6.71 264.12 5.30Q262.79 3.89 260.83 3.89L260.83 3.89Q259.29 3.89 258.21 4.93Q257.12 5.96 257.12 7.98ZM274.09 3.81L274.09 3.81Q274.09 3.65 274.25 3.61Q274.41 3.57 274.96 3.57L274.96 3.57Q275.04 3.57 275.35 3.58Q275.65 3.60 275.77 3.60L275.77 3.60Q275.93 3.60 276.34 3.59Q276.75 3.58 276.96 3.58L276.96 3.58Q277.66 3.58 277.66 3.75L277.66 3.75Q277.66 3.91 277.37 4.01Q277.07 4.12 277.07 4.24L277.07 4.24Q277.07 4.38 277.17 4.61Q277.26 4.83 277.35 4.97Q277.44 5.11 277.62 5.38Q277.80 5.64 277.83 5.70L277.83 5.70Q278.31 6.45 278.82 7.14Q279.33 7.83 279.40 7.83L279.40 7.83Q279.48 7.83 279.61 7.66Q279.73 7.50 279.96 7.13Q280.18 6.75 280.34 6.52L280.34 6.52Q280.38 6.45 280.54 6.22Q280.70 5.98 280.76 5.88Q280.83 5.78 280.95 5.58Q281.08 5.38 281.13 5.27Q281.19 5.17 281.27 5.02Q281.34 4.87 281.37 4.77Q281.40 4.68 281.40 4.59L281.40 4.59Q281.40 4.14 280.92 4.03L280.92 4.03Q280.87 4.02 280.76 4.00Q280.66 3.99 280.61 3.98Q280.56 3.96 280.49 3.93Q280.42 3.91 280.39 3.86Q280.36 3.81 280.36 3.74L280.36 3.74Q280.36 3.57 280.76 3.57L280.76 3.57Q280.83 3.57 281.01 3.58Q281.20 3.58 281.33 3.58L281.33 3.58Q281.65 3.58 282.11 3.59Q282.56 3.60 282.81 3.60L282.81 3.60Q283.50 3.60 283.50 3.81L283.50 3.81Q283.50 3.86 283.42 3.91Q283.33 3.95 283.18 4.02Q283.02 4.09 282.90 4.19L282.90 4.19Q282.32 4.63 281.21 6.31Q280.10 7.99 279.94 8.19L279.94 8.19Q279.72 8.47 279.66 8.81Q279.61 9.14 279.61 9.95L279.61 9.95Q279.61 10.14 279.62 10.73Q279.62 11.33 279.62 11.58L279.62 11.58L279.62 11.91Q279.62 12.38 279.78 12.64Q279.94 12.91 280.08 12.96Q280.22 13.01 280.36 13.01L280.36 13.01Q280.39 13.01 280.50 13.01Q280.62 13.02 280.64 13.02L280.64 13.02Q280.74 13.02 280.80 13.08Q280.85 13.15 280.85 13.22L280.85 13.22Q280.85 13.36 280.78 13.40Q280.71 13.44 280.52 13.44L280.52 13.44Q280.45 13.44 279.91 13.43Q279.37 13.43 279.12 13.43L279.12 13.43Q278.63 13.43 278.22 13.45Q277.82 13.48 277.58 13.48L277.58 13.48Q277.19 13.48 277.19 13.33L277.19 13.33Q277.19 13.20 277.26 13.15Q277.34 13.10 277.52 13.09Q277.70 13.08 277.79 13.05L277.79 13.05Q278.38 12.87 278.38 12.19L278.38 12.19Q278.38 12.11 278.38 11.92Q278.39 11.73 278.40 11.12Q278.40 10.50 278.40 9.35L278.40 9.35Q278.40 9.13 278.37 8.97Q278.33 8.81 278.29 8.65Q278.24 8.50 278.05 8.20Q277.86 7.91 277.68 7.64Q277.49 7.36 277.05 6.72Q276.61 6.08 276.21 5.46L276.21 5.46Q275.77 4.80 275.42 4.46Q275.07 4.12 274.88 4.05Q274.69 3.99 274.44 3.99L274.44 3.99Q274.09 3.99 274.09 3.81ZM289.07 13.33L289.07 13.33Q289.07 13.13 289.28 13.06L289.28 13.06Q289.73 12.89 290.07 12.31Q290.40 11.73 291.73 8.83L291.73 8.83Q293.10 5.87 294.15 3.63L294.15 3.63Q294.25 3.42 294.33 3.36Q294.41 3.30 294.57 3.30L294.57 3.30Q294.70 3.30 294.74 3.36Q294.78 3.42 294.92 3.82L294.92 3.82Q295.01 4.06 295.07 4.23Q295.13 4.40 295.27 4.77Q295.41 5.15 295.58 5.56L295.58 5.56Q296.03 6.66 297.13 9.22Q298.23 11.77 298.33 11.98L298.33 11.98Q298.56 12.46 298.86 12.71Q299.15 12.95 299.37 12.97Q299.59 12.99 299.73 13.04Q299.88 13.09 299.88 13.26L299.88 13.26Q299.88 13.47 299.50 13.47L299.50 13.47Q299.35 13.47 298.90 13.43Q298.45 13.38 298.24 13.38L298.24 13.38Q297.98 13.38 297.56 13.41Q297.14 13.44 296.94 13.44L296.94 13.44Q296.51 13.44 296.39 13.40Q296.27 13.37 296.27 13.24L296.27 13.24Q296.27 13.15 296.38 13.08Q296.49 13.02 296.62 13.00Q296.74 12.98 296.86 12.87Q296.97 12.77 296.97 12.59L296.97 12.59Q296.97 12.28 296.62 11.33Q296.27 10.37 296.03 9.93L296.03 9.93Q295.90 9.69 295.46 9.69L295.46 9.69Q295.39 9.69 294.84 9.70Q294.29 9.72 293.76 9.72L293.76 9.72L293.02 9.72Q292.39 9.72 292.23 9.79Q292.07 9.86 291.94 10.12L291.94 10.12Q291.86 10.30 291.66 10.70Q291.47 11.10 291.40 11.26Q291.33 11.41 291.22 11.65Q291.12 11.90 291.08 12.05Q291.05 12.19 291.05 12.31L291.05 12.31Q291.05 12.63 291.21 12.80Q291.37 12.96 291.56 12.98Q291.76 13.01 291.92 13.06Q292.08 13.12 292.08 13.26L292.08 13.26Q292.08 13.36 292.04 13.40Q292.00 13.45 291.84 13.45L291.84 13.45Q291.76 13.45 291.36 13.45Q290.96 13.44 290.68 13.44L290.68 13.44Q290.37 13.44 289.99 13.47Q289.60 13.50 289.48 13.50L289.48 13.50Q289.07 13.50 289.07 13.33ZM292.59 8.71L292.59 8.71Q292.59 8.89 292.71 8.93Q292.84 8.97 293.30 8.97L293.30 8.97L293.73 8.97L295.06 8.96Q295.61 8.96 295.61 8.74L295.61 8.74Q295.61 8.55 294.92 7.01Q294.24 5.46 294.06 5.46L294.06 5.46Q293.93 5.46 293.26 7.01Q292.59 8.55 292.59 8.71ZM307.44 3.71L307.44 3.71Q307.44 3.46 307.82 3.46L307.82 3.46Q307.87 3.46 308 3.47Q308.13 3.49 308.20 3.49L308.20 3.49Q308.34 3.49 308.72 3.51Q309.11 3.54 309.41 3.54L309.41 3.54Q309.85 3.54 310.34 3.51Q310.83 3.49 310.88 3.49L310.88 3.49Q311.12 3.49 311.12 3.63L311.12 3.63Q311.12 3.82 310.95 3.88Q310.79 3.95 310.58 3.97Q310.38 3.99 310.19 4.28Q310.00 4.56 309.97 5.14L309.97 5.14Q309.95 5.68 309.90 8.19Q309.86 10.70 309.86 10.99L309.86 10.99L309.86 11.55Q309.86 12.56 310.20 12.66L310.20 12.66Q310.55 12.77 310.80 12.77L310.80 12.77Q311.85 12.77 312.64 12.67Q313.43 12.57 313.83 12.42Q314.23 12.28 314.50 12.10Q314.76 11.93 314.84 11.78Q314.92 11.63 314.99 11.54Q315.07 11.44 315.15 11.44L315.15 11.44Q315.32 11.44 315.32 11.68L315.32 11.68Q315.32 12.28 314.72 12.89Q314.12 13.51 313.67 13.51L313.67 13.51Q312.66 13.51 311.40 13.44Q310.13 13.37 309.82 13.37L309.82 13.37Q309.43 13.37 308.92 13.43Q308.41 13.48 308.07 13.48L308.07 13.48Q307.66 13.48 307.66 13.31L307.66 13.31Q307.66 13.22 307.74 13.15Q307.82 13.09 307.89 13.09L307.89 13.09Q308.10 13.09 308.29 12.95L308.29 12.95Q308.55 12.75 308.66 12.23Q308.77 11.70 308.77 10.21L308.77 10.21L308.77 8.47Q308.77 8.09 308.79 7.29Q308.81 6.50 308.81 6.05L308.81 6.05Q308.81 5.67 308.78 4.77L308.78 4.77Q308.77 4.37 308.43 4.14Q308.10 3.92 307.65 3.91L307.65 3.91Q307.51 3.91 307.48 3.86Q307.44 3.81 307.44 3.71ZM321.65 5.32L321.65 5.32Q321.65 4.76 321.79 3.88L321.79 3.88Q321.79 3.85 321.80 3.78Q321.80 3.71 321.81 3.69Q321.82 3.67 321.82 3.62Q321.83 3.57 321.85 3.55Q321.86 3.53 321.88 3.49Q321.90 3.46 321.93 3.44Q321.96 3.43 322 3.42Q322.04 3.40 322.10 3.39Q322.15 3.39 322.22 3.39L322.22 3.39Q322.45 3.39 323.41 3.44Q324.37 3.50 326.17 3.50L326.17 3.50Q329.25 3.50 330.48 3.43L330.48 3.43Q330.50 3.43 330.53 3.42Q330.57 3.42 330.58 3.42L330.58 3.42Q330.74 3.42 330.79 3.50Q330.85 3.58 330.85 3.65L330.85 3.65Q330.85 3.75 330.89 4.24Q330.93 4.73 330.93 4.79L330.93 4.79Q330.93 5.14 330.89 5.23Q330.85 5.32 330.71 5.32L330.71 5.32Q330.60 5.32 330.55 5.15L330.55 5.15Q330.44 4.75 330.36 4.60Q330.27 4.45 329.99 4.34Q329.71 4.23 329.14 4.23L329.14 4.23L327.32 4.23Q326.98 4.23 326.91 4.36Q326.83 4.49 326.83 5.12L326.83 5.12L326.83 5.81Q326.83 7.69 326.81 9.11Q326.79 10.54 326.79 10.93L326.79 10.93Q326.79 11.13 326.78 11.43Q326.77 11.73 326.77 11.84L326.77 11.84Q326.77 12.45 326.97 12.64L326.97 12.64Q327.15 12.81 327.38 12.90Q327.60 12.99 327.76 13.01Q327.92 13.02 328.03 13.08Q328.15 13.13 328.15 13.26L328.15 13.26Q328.15 13.41 328.08 13.45Q328.01 13.50 327.81 13.50L327.81 13.50Q327.64 13.50 327.07 13.44Q326.49 13.38 326.26 13.38L326.26 13.38Q326.09 13.38 325.58 13.43Q325.07 13.48 324.83 13.48L324.83 13.48Q324.31 13.48 324.31 13.26L324.31 13.26Q324.31 13.12 324.39 13.07Q324.48 13.02 324.72 12.98Q324.97 12.95 325.04 12.94L325.04 12.94Q325.51 12.82 325.57 12.38L325.57 12.38Q325.71 11.14 325.71 7.08L325.71 7.08L325.70 4.58Q325.70 4.31 325.54 4.25Q325.39 4.19 324.63 4.19L324.63 4.19Q323.65 4.19 323.16 4.24Q322.66 4.30 322.57 4.35Q322.49 4.40 322.38 4.54L322.38 4.54Q322.25 4.70 322.18 4.91Q322.10 5.11 322.08 5.24Q322.06 5.38 321.99 5.47Q321.93 5.56 321.80 5.56L321.80 5.56Q321.65 5.56 321.65 5.32ZM338.49 3.81L338.49 3.81Q338.49 3.65 338.65 3.61Q338.81 3.57 339.36 3.57L339.36 3.57Q339.44 3.57 339.75 3.58Q340.05 3.60 340.17 3.60L340.17 3.60Q340.33 3.60 340.74 3.59Q341.15 3.58 341.36 3.58L341.36 3.58Q342.06 3.58 342.06 3.75L342.06 3.75Q342.06 3.91 341.77 4.01Q341.47 4.12 341.47 4.24L341.47 4.24Q341.47 4.38 341.56 4.61Q341.66 4.83 341.75 4.97Q341.84 5.11 342.02 5.38Q342.20 5.64 342.23 5.70L342.23 5.70Q342.71 6.45 343.22 7.14Q343.73 7.83 343.80 7.83L343.80 7.83Q343.88 7.83 344.01 7.66Q344.13 7.50 344.36 7.13Q344.58 6.75 344.74 6.52L344.74 6.52Q344.78 6.45 344.94 6.22Q345.10 5.98 345.16 5.88Q345.23 5.78 345.35 5.58Q345.48 5.38 345.53 5.27Q345.59 5.17 345.67 5.02Q345.74 4.87 345.77 4.77Q345.80 4.68 345.80 4.59L345.80 4.59Q345.80 4.14 345.32 4.03L345.32 4.03Q345.27 4.02 345.16 4.00Q345.06 3.99 345.01 3.98Q344.96 3.96 344.89 3.93Q344.82 3.91 344.79 3.86Q344.76 3.81 344.76 3.74L344.76 3.74Q344.76 3.57 345.16 3.57L345.16 3.57Q345.23 3.57 345.41 3.58Q345.60 3.58 345.73 3.58L345.73 3.58Q346.05 3.58 346.51 3.59Q346.96 3.60 347.21 3.60L347.21 3.60Q347.90 3.60 347.90 3.81L347.90 3.81Q347.90 3.86 347.82 3.91Q347.73 3.95 347.58 4.02Q347.42 4.09 347.30 4.19L347.30 4.19Q346.72 4.63 345.61 6.31Q344.50 7.99 344.34 8.19L344.34 8.19Q344.12 8.47 344.06 8.81Q344.01 9.14 344.01 9.95L344.01 9.95Q344.01 10.14 344.01 10.73Q344.02 11.33 344.02 11.58L344.02 11.58L344.02 11.91Q344.02 12.38 344.18 12.64Q344.34 12.91 344.48 12.96Q344.62 13.01 344.76 13.01L344.76 13.01Q344.79 13.01 344.90 13.01Q345.02 13.02 345.04 13.02L345.04 13.02Q345.14 13.02 345.20 13.08Q345.25 13.15 345.25 13.22L345.25 13.22Q345.25 13.36 345.18 13.40Q345.11 13.44 344.92 13.44L344.92 13.44Q344.85 13.44 344.31 13.43Q343.77 13.43 343.52 13.43L343.52 13.43Q343.03 13.43 342.62 13.45Q342.22 13.48 341.98 13.48L341.98 13.48Q341.59 13.48 341.59 13.33L341.59 13.33Q341.59 13.20 341.66 13.15Q341.74 13.10 341.92 13.09Q342.10 13.08 342.19 13.05L342.19 13.05Q342.78 12.87 342.78 12.19L342.78 12.19Q342.78 12.11 342.78 11.92Q342.79 11.73 342.80 11.12Q342.80 10.50 342.80 9.35L342.80 9.35Q342.80 9.13 342.77 8.97Q342.73 8.81 342.69 8.65Q342.64 8.50 342.45 8.20Q342.26 7.91 342.08 7.64Q341.89 7.36 341.45 6.72Q341.01 6.08 340.61 5.46L340.61 5.46Q340.17 4.80 339.82 4.46Q339.47 4.12 339.28 4.05Q339.09 3.99 338.84 3.99L338.84 3.99Q338.49 3.99 338.49 3.81Z"></path></g></svg>